<?xml version="1.0" encoding="utf-8"?>
<!-- Generator: Adobe Illustrator 23.0.2, SVG Export Plug-In . SVG Version: 6.00 Build 0)  -->
<svg version="1.1" id="レイヤー_1" xmlns="http://www.w3.org/2000/svg" xmlns:xlink="http://www.w3.org/1999/xlink" x="0px"
	 y="0px" viewBox="0 0 1346.5 323.1" style="enable-background:new 0 0 1346.5 323.1;" xml:space="preserve">
<style type="text/css">
	.st0{fill:none;stroke:#2A92C2;stroke-width:3.2294;stroke-linecap:round;stroke-linejoin:round;stroke-miterlimit:10;}
	.st1{fill:none;stroke:#2E8BB7;stroke-width:5.0919;stroke-linecap:round;stroke-linejoin:round;stroke-miterlimit:10;}
	.st2{fill:none;stroke:#202121;stroke-width:5.1463;stroke-linecap:round;stroke-linejoin:round;stroke-miterlimit:10;}
</style>
<g>
	<path class="st0" d="M982,81.5"/>
	<path class="st1" d="M148.5,110.4L97.2,315.8l-36,3"/>
	<path class="st1" d="M1292.3,201.3L1344,49.6l-104,7.3l-31.9,61.8l-35,2.2"/>
	<path class="st1" d="M1052.3,224.2l42.4-32"/>
	<path class="st1" d="M1142.3,97.6l-20.5,89.9l-66.3,8.1"/>
	<path class="st1" d="M1036.6,108l-10.5,42.2l-12.9,1.1"/>
	<path class="st1" d="M1075.5,104.8L1065,147l-12.9,1.1"/>
	<path class="st1" d="M991.1,34.4l-23.3,115.3l27,30.3l0,44.8"/>
	<path class="st1" d="M578.6,93.3l146.3-11l-32.4,86"/>
	<path class="st1" d="M215.6,233.3L361,222.6l-12.6,33.4"/>
	<path class="st1" d="M208.3,137.8L194,172.1L24.2,187"/>
	<path class="st1" d="M193.5,207.2l-14.3,34.3L9.5,256.3"/>
	<path class="st1" d="M595.4,269.9l31.8-2.3l21.2-124.2"/>
	<path class="st1" d="M905.3,45.1l-25.5,139.5l-56,56.1"/>
	<path class="st1" d="M316.4,162.3l-33.2,135.3l-35.9,3.1"/>
	<path class="st1" d="M443.9,87.9l-20.3,86.7l-30.8,25.5"/>
	<path class="st1" d="M535.2,79.9L502,222.6l-91.1,73.7"/>
	<path class="st2" d="M187.9,160.9L18.1,175.7l14.3-34.3l169.7-14.9L187.9,160.9z"/>
	<path class="st2" d="M701.5,94.5l-140.1,12.3l10.4-33.9l141.6-12.4L701.5,94.5z"/>
	<path class="st2" d="M707.2,158.1l24.6-65.7l-30.1,1.2L676.4,161L707.2,158.1z"/>
	<path class="st2" d="M329.9,213.6l-116.4,10.2l10.7-26l115.9-10.1L329.9,213.6z"/>
	<path class="st2" d="M338.8,254.4l15.1-42.3l-23.8,1l-15.5,43.4L338.8,254.4z"/>
	<path class="st2" d="M1245.8,13.7l-44.2,92.6l-34,1.6l44.2-92.6c0,0,0.1-0.6,0.7-0.6l99.3-8.9L1297.5,40L1196,48.9"/>
	<path class="st2" d="M1278,198.5l53.6-160.9l-34,1.6L1242,200.8L1278,198.5z"/>
	<path class="st2" d="M617,256.1l21.2-122l-31.9,1.5l-21.1,122.8L617,256.1z"/>
	<path class="st2" d="M172.7,230L2.9,244.9l14.3-34.3L187,195.7L172.7,230z"/>
	<path class="st2" d="M107.1,103.9l30.9-2.5L88.8,302.2l-30.9,2.5L107.1,103.9z"/>
	<path class="st2" d="M274.5,286l-30.4,2.7l31-126.9l30.4-2.7L274.5,286z"/>
	<path class="st2" d="M1075.1,138.5l-21.9,1.9l10.5-42.2l21.9-1.9L1075.1,138.5z"/>
	<path class="st2" d="M1043.2,218.7l44.4-36.1l19.8-88.2l25.8-2.2l-20.7,87.5l-63.5,7L1043.2,218.7z"/>
	<path class="st2" d="M413.5,239.8l45.1-2.5l37.5-159.5l26.5-2.3l-32.3,139l-89.5,73.5L413.5,239.8z"/>
	<path class="st2" d="M811.2,236.4l-2.3-43.9l32.1-31.2l21.3-117.8l30.4-2.7l-25.8,136.4L811.2,236.4z"/>
	<path class="st2" d="M981.5,224.3l-0.1-42.1l-26.8-29.6l23.6-119.2L947.8,36l-23.6,126L981.5,224.3z"/>
	<path class="st2" d="M412,168l-32.2,27.4l25.4-109.6l26.5-2.3L412,168z"/>
	<path class="st2" d="M1035.7,141.9l-21.9,1.9l10.5-42.2l21.9-1.9L1035.7,141.9z"/>
</g>
</svg>
