<?xml version="1.0" encoding="UTF-8"?>
<svg width="158px" height="47px" viewBox="0 0 158 47" version="1.1" xmlns="http://www.w3.org/2000/svg" xmlns:xlink="http://www.w3.org/1999/xlink">
    <!-- Generator: Sketch 51.3 (57544) - http://www.bohemiancoding.com/sketch -->
    <title>logo</title>
    <desc>Created with Sketch.</desc>
    <defs></defs>
    <g id="Page-1" stroke="none" stroke-width="1" fill="none" fill-rule="evenodd">
        <g id="Desktop-HD" transform="translate(-219.000000, -7057.000000)" fill-rule="nonzero">
            <g id="Footer" transform="translate(219.000000, 7057.000000)">
                <g id="logo">
                    <g id="Symbol">
                        <path d="M43.1957875,23.4764127 C43.7780977,25.5717687 44.0002759,27.5638121 43.8841043,29.4176201 C43.8855564,29.4176201 43.8855564,29.4176201 43.8841043,29.4190752 C43.6343353,33.4511805 41.7886587,36.8255768 38.5663485,39.1624808 C36.9239723,40.3556697 34.9243683,41.2782084 32.5951274,41.8791681 C33.2979657,41.1603446 33.9804739,40.3645458 34.6412,39.4914808 C35.3701769,38.5251433 36.0701109,37.4643693 36.7366455,36.3090133 L40.4497809,29.8643384 C41.1744013,28.6087254 41.7799459,27.3718833 42.2722231,26.1625427 C42.6454244,25.2516449 42.9518271,24.3552981 43.1943353,23.4764127 L43.1957875,23.4764127 Z" id="Fill-1" fill="#DDDDDD"></path>
                        <path d="M32.5951274,5.06929195 C41.5940713,7.39601022 45.6862165,14.4999947 43.1957875,23.4749576 C42.6294508,21.4305303 41.7204079,19.2886108 40.4497809,17.0841217 L36.7366455,10.6394467 C35.4689228,8.43932291 34.0748634,6.58260464 32.5951274,5.06929195" id="Fill-3" fill="#BBBBBB"></path>
                        <path d="M43.1958165,23.4749576 L43.1958165,23.4764127 L43.1943644,23.4764127 C42.9518561,24.3552981 42.6454535,25.2516449 42.2722521,26.1625427 C41.7799749,27.3718833 41.1744304,28.6087254 40.4498099,29.8643384 L36.7366746,36.3090133 C36.0701399,37.4643693 35.3702059,38.5251433 34.641229,39.4914808 C33.980503,40.3645458 33.2979947,41.1603446 32.5951564,41.8791681 C32.5951564,41.8791681 32.5937043,41.8791681 32.5937043,41.8806232 C30.5418231,42.4117378 28.2358165,42.6940288 25.6945624,42.6940288 L21.9814271,42.6940288 L18.2682917,42.6940288 C15.7270376,42.6940288 13.421031,42.4117378 11.3691498,41.8806232 L11.3676977,41.8791681 C10.6648594,41.1603446 9.98089901,40.3645458 9.32162508,39.4914808 C8.59264818,38.5251433 7.89271419,37.4643693 7.22617954,36.3090133 L3.51159208,29.8643384 C2.78842376,28.6087254 2.18142706,27.3731929 1.68914983,26.1654529 C1.31740066,25.2531 1.01099802,24.3552981 0.767037624,23.4764127 L0.767037624,23.4749576 C1.33192211,21.4305303 2.24096502,19.2886108 3.51159208,17.0841217 L7.22617954,10.6394467 C8.49390231,8.43932291 9.88650957,6.58260464 11.3676977,5.06929195 L11.3691498,5.06783684 C12.160569,4.86266656 12.9897439,4.6953291 13.8566746,4.56727957 C15.2347604,4.36065418 16.7072356,4.25443127 18.2682917,4.25443127 L21.9814271,4.25443127 L25.6945624,4.25443127 C27.2643314,4.25443127 28.7455195,4.36210929 30.130866,4.57018978 C30.9890838,4.69823932 31.8095459,4.86412167 32.5937043,5.06783684 L32.5951564,5.06929195 C34.0748924,6.58260464 35.4689518,8.43932291 36.7366746,10.6394467 L40.4498099,17.0841217 C41.720437,19.2886108 42.6294799,21.4305303 43.1958165,23.4749576" id="Path" fill="#999999"></path>
                        <path d="M31.7137043,23.4764127 C32.3802389,21.519292 32.7970046,19.4473632 32.9276977,17.2965675 C29.6560145,15.5766294 25.931262,14.604617 21.9814271,14.604617 C18.040305,14.604617 14.3242653,15.5722641 11.0569386,17.2849266 C11.1876317,19.4399421 11.6043974,21.5163817 12.2723842,23.4764127 C14.020767,28.6145458 17.4855855,32.9564437 21.9814271,35.8173322 L21.9814271,35.8317378 C21.9857835,35.8302827 21.9901399,35.8273724 21.9930442,35.8244622 C26.4946944,32.9637192 29.9638693,28.6187656 31.7137043,23.4764127" id="Fill-5" fill="#FFFFFF"></path>
                        <path d="M28.3650429,1.79246068 C29.8273531,2.60004582 31.246099,3.69137709 32.5936898,5.0679096 C31.8095314,4.86404892 30.9890693,4.69831207 30.1308515,4.57026254 C28.745505,4.36203653 27.2643168,4.25450402 25.6945479,4.25450402 L21.9814125,4.25450402 L18.2682772,4.25450402 C16.7072211,4.25450402 15.2347459,4.36058142 13.8566601,4.56720681 C12.9897294,4.69525635 12.1605545,4.86273932 11.3691353,5.0679096 C12.7283432,3.67973622 14.1616106,2.57952879 15.6369901,1.77063406 C17.696132,0.640014861 19.8394983,0.0752873065 21.9814125,0.0752873065 C24.1378482,0.0752873065 26.2942838,0.647290402 28.3650429,1.79246068" id="Fill-7" fill="#DDDDDD"></path>
                        <path d="M25.6945333,42.6940724 C28.2357875,42.6940724 30.5417941,42.4117814 32.5936752,41.8806669 C29.3365135,45.2083542 25.6582297,46.8731437 21.981398,46.8731437 C18.3031142,46.8731437 14.6262825,45.2083542 11.3691208,41.8806669 C13.421002,42.4117814 15.7270086,42.6940724 18.2682627,42.6940724 L21.981398,42.6940724 L25.6945333,42.6940724 Z" id="Fill-9" fill="#BBBBBB"></path>
                        <path d="M9.32159604,39.491408 C9.98086997,40.3644731 10.6648304,41.1604173 11.3676686,41.8790954 C9.03552343,41.276826 7.03446733,40.3542873 5.39063894,39.1581882 C2.17268515,36.8225938 0.328460726,33.448343 0.0786917492,29.4190025 C0.077239604,29.4176929 0.077239604,29.4176929 0.0786917492,29.4176929 C-0.037479868,27.5637393 0.18469835,25.5718415 0.765556436,23.4763399 L0.767008581,23.4763399 C1.01096898,24.3552254 1.31737162,25.2530272 1.68912079,26.1655257 C2.18139802,27.3732656 2.78839472,28.6086526 3.51156304,29.8644111 L7.2261505,36.3090861 C7.89268515,37.4642966 8.59261914,38.5250706 9.32159604,39.491408" id="Fill-11" fill="#DDDDDD"></path>
                        <path d="M11.3676396,5.06929195 C9.88645149,6.58260464 8.49384422,8.43932291 7.22612145,10.6394467 L3.51153399,17.0841217 C2.24090693,19.2886108 1.33186403,21.4305303 0.766979538,23.4749576 C-1.7234495,14.4999947 2.36869571,7.39601022 11.3676396,5.06929195" id="Fill-13" fill="#BBBBBB"></path>
                    </g>
                    <g id="Group-27" transform="translate(54.000000, 12.000000)" fill="#AAAAAA">
                        <path d="M34.2907826,19.5518433 L30.0127597,19.5518433 L30.0127597,12.2546995 C30.0127597,10.6833304 29.0709453,9.61818003 27.6987493,9.61818003 C26.0035724,9.61818003 24.9005456,10.763335 24.9005456,13.3465914 L24.9005456,19.5518433 L20.5955056,19.5518433 L20.5955056,6.18260519 L24.9005456,6.18260519 L24.9005456,7.46091766 C25.9229661,6.39565726 27.3489738,5.78313253 29.0440394,5.78313253 C32.1920186,5.78313253 34.2907826,7.99354787 34.2907826,11.3492282 L34.2907826,19.5518433 Z" id="Fill-17"></path>
                        <polygon id="Fill-19" points="42.8358976 23.9956256 38.1811932 23.9956256 40.3605635 19.0154231 34.7640449 6.07228916 39.3918434 6.07228916 42.5937453 13.8754317 46.0108937 6.07228916 50.6388033 6.07228916"></polygon>
                        <path d="M51.8539326,5.13999149 C51.8539326,1.9974733 54.033414,0 57.2890163,0 C58.2037025,0 59.0917052,0.186420571 59.952691,0.559261712 L59.0378936,3.86156896 C58.6341953,3.72841141 58.2037025,3.64862693 57.8809439,3.64862693 C56.8585234,3.64862693 56.1320667,4.26115165 56.1320667,5.32641207 L56.1320667,6.17862039 L59.8450678,6.17862039 L59.8450678,9.56082217 L56.1320667,9.56082217 L56.1320667,19.5478586 L51.8539326,19.5478586 L51.8539326,6.17862039 L51.8539326,5.13999149 Z" id="Fill-21"></path>
                        <polygon id="Fill-23" points="61.7865169 19.4641741 66.0915568 19.4641741 66.0915568 0.289156627 61.7865169 0.289156627"></polygon>
                        <path d="M78.8031653,12.8139612 C78.8031653,10.7367035 77.2157229,9.35175489 75.5474518,9.35175489 C73.7984632,9.35175489 72.2110208,10.7367035 72.2110208,12.8139612 C72.2110208,14.9178506 73.7984632,16.2761676 75.5474518,16.2761676 C77.2157229,16.2761676 78.8031653,14.9178506 78.8031653,12.8139612 M82.9467704,12.8139612 C82.9467704,17.0484814 79.5564167,19.8714214 75.5474518,19.8714214 C71.4577694,19.8714214 68.0674157,17.0484814 68.0674157,12.8139612 C68.0674157,8.60618264 71.4577694,5.78313253 75.5474518,5.78313253 C79.5564167,5.78313253 82.9467704,8.60618264 82.9467704,12.8139612" id="Fill-25"></path>
                        <polygon id="Fill-26" points="99.6481134 19.4682688 95.9080954 19.4682688 93.486573 12.2243881 91.0381448 19.4682688 87.2981267 19.4682688 82.9662921 6.07228916 87.1905035 6.07228916 89.3968907 13.2629069 91.9529421 6.07228916 94.9934092 6.07228916 97.5494606 13.2895384 99.7558478 6.07228916 103.980059 6.07228916"></polygon>
                        <path d="M9.82084106,6.54393237 L7.53384767,12.4028646 L12.1347403,12.4028646 L9.82084106,6.54393237 Z M14.8792435,19.4338034 L13.6146707,16.1846491 L6.02701142,16.1846491 L4.76243861,19.4338034 L0,19.4338034 L7.53384767,1.59036145 L12.0809287,1.59036145 L19.6147763,19.4338034 L14.8792435,19.4338034 Z" id="Fill-16"></path>
                    </g>
                </g>
            </g>
        </g>
    </g>
</svg>