<?xml version="1.0" encoding="UTF-8"?>
<svg width="2428px" height="500px" viewBox="0 0 2428 500" version="1.1" xmlns="http://www.w3.org/2000/svg" xmlns:xlink="http://www.w3.org/1999/xlink">
    <!-- Generator: Sketch 61.2 (89653) - https://sketch.com -->
    <title>nikkei-logo</title>
    <desc>Created with Sketch.</desc>
    <g id="Page-1" stroke="none" stroke-width="1" fill="none" fill-rule="evenodd">
        <g id="nikkei-logo" fill="#000000" fill-rule="nonzero">
            <polygon id="Path" points="894.204507 0.0726306834 738.735936 499.927369 876.500778 499.927369 963.086929 222.452219 1017.20976 222.452219 1115.61136 499.927369 1261.23588 499.927369 1162.83428 222.452219 1115.61136 222.452219 1340.92212 0.0726306834 1183.49511 0.0726306834 964.072631 217.536678 1031.95638 0.0726306834"></polygon>
            <path d="M1372.41271,0.0726306834 L1216.95711,499.927369 L1354.70898,499.927369 L1441.28216,222.452219 L1495.41796,222.452219 L1593.80659,499.927369 L1739.44408,499.927369 L1641.05545,222.452219 L1593.80659,222.452219 L1819.13032,0.0726306834 L1661.69034,0.0726306834 L1442.28083,217.536678 L1510.16458,0.0726306834 L1372.41271,0.0726306834 L1372.41271,0.0726306834 Z M526.200398,499.927369 L663.965241,499.927369 L819.433813,0.0726306834 L681.66897,0.0726306834 L526.200398,499.927369 Z M2133.9973,499.927369 L2271.76214,499.927369 L2427.24369,0.0726306834 L2289.46587,0.0726306834 L2133.9973,499.927369 L2133.9973,499.927369 Z" id="Shape"></path>
            <path d="M1697.13671,499.927369 L2062.18371,499.927369 L2089.71852,411.369815 L1862.4234,411.369815 L1900.80093,287.404802 L2112.3767,287.404802 L2139.91152,198.834278 L1928.36168,198.834278 L1963.78211,84.6873768 L2190.09154,84.6873768 L2217.65229,0.0726306834 L1852.59231,0.0726306834 L1697.13671,499.927369 L1697.13671,499.927369 Z M606.885306,0.0726306834 L492.751375,0.0726306834 L385.504389,345.43153 L319.579074,0.0726306834 L156.237855,0.0726306834 L0.756313682,499.927369 L115.888917,499.927369 L227.078711,136.838801 L296.933865,499.927369 L451.429704,499.927369 L606.885306,0.0726306834 Z M2363.1082,441.135425 C2377.24524,441.135425 2388.41221,452.276453 2388.41221,467.074955 C2388.41221,482.119882 2377.24524,493.196061 2363.1082,493.196061 C2348.81552,493.196061 2337.64855,482.119882 2337.64855,467.074955 C2337.64855,452.289423 2348.81552,441.135425 2363.1082,441.135425 L2363.1082,435.92158 C2345.93623,435.92158 2331.37118,449.15074 2331.37118,467.074955 C2331.37118,485.180747 2345.93623,498.409907 2363.1082,498.409907 C2380.12453,498.409907 2394.70255,485.180747 2394.70255,467.074955 C2394.70255,449.13777 2380.1375,435.92158 2363.1082,435.92158 L2363.1082,441.135425 Z" id="Shape"></path>
            <path d="M2356.49362,453.780946 L2363.93826,453.780946 C2367.73841,453.780946 2371.78497,454.611011 2371.78497,459.07261 C2371.78497,464.59773 2367.66059,464.921974 2363.01741,464.921974 L2356.48065,464.921974 L2356.48065,469.55218 L2362.75802,469.55218 L2372.27782,485.180747 L2378.38658,485.180747 L2368.1275,469.292785 C2373.41916,468.631327 2377.4787,465.816888 2377.4787,459.383884 C2377.4787,452.263483 2373.27649,449.1248 2364.74239,449.1248 L2351.03335,449.1248 L2351.03335,485.167777 L2356.48065,485.167777 L2356.48065,453.780946 L2356.49362,453.780946 L2356.49362,453.780946 Z" id="Path"></path>
        </g>
    </g>
</svg>